<?xml version="1.0" encoding="utf-8"?>
<!-- Generator: Adobe Illustrator 18.0.0, SVG Export Plug-In . SVG Version: 6.00 Build 0)  -->
<!DOCTYPE svg PUBLIC "-//W3C//DTD SVG 1.1//EN" "http://www.w3.org/Graphics/SVG/1.1/DTD/svg11.dtd">
<svg version="1.1" id="Слой_1" xmlns="http://www.w3.org/2000/svg" xmlns:xlink="http://www.w3.org/1999/xlink" x="0px" y="0px"
	 viewBox="0 0 401.1 127.6" enable-background="new 0 0 401.1 127.6" xml:space="preserve">
<g>
	<path fill="#171818" d="M110,52.7c-0.9-1.3-2.1-2.4-3.8-3.2c-1.6-0.8-3.4-1.3-5.2-1.3c-4.6,0-8.2,1.4-10.7,4.1
		c-2.5,2.8-3.8,6.4-3.8,10.8c0,4.5,1.3,8.1,3.8,10.8c2.6,2.8,6.1,4.1,10.7,4.1c2,0,3.8-0.4,5.2-1.3c1.5-0.9,2.7-1.9,3.8-3.2l12,12.6
		c-2.8,2.9-6.2,5-10,6.1c-3.8,1.2-7.5,1.8-11,1.8c-4.5,0-8.8-0.7-12.8-2.2c-4-1.5-7.5-3.5-10.4-6.3c-3-2.7-5.3-6-7-9.8
		c-1.7-3.8-2.6-8.1-2.6-12.7c0-4.7,0.9-8.9,2.6-12.7c1.7-3.8,4-7.1,7-9.8c3-2.7,6.4-4.8,10.4-6.3c4-1.5,8.3-2.2,12.8-2.2
		c3.5,0,7.1,0.6,11,1.8c3.8,1.2,7.2,3.2,10,6.1L110,52.7z"/>
	<path fill="#171818" d="M183.1,82.5c-2.9,3.7-6.6,6.6-11,8.6c-4.5,2-9.1,3-13.8,3c-4.5,0-8.8-0.7-12.8-2.2c-4-1.5-7.5-3.5-10.4-6.3
		c-3-2.7-5.3-6-7-9.8c-1.7-3.8-2.6-8.1-2.6-12.7c0-4.7,0.9-8.9,2.6-12.7c1.7-3.8,4-7.1,7-9.8c3-2.7,6.4-4.8,10.4-6.3
		c4-1.5,8.3-2.2,12.8-2.2c4.2,0,8,0.7,11.5,2.2c3.4,1.5,6.4,3.5,8.7,6.3c2.4,2.7,4.2,6,5.5,9.8c1.3,3.8,1.9,8.1,1.9,12.7v5.7h-42.3
		c0.7,3.5,2.3,6.3,4.7,8.3c2.4,2.1,5.4,3.1,9,3.1c3,0,5.5-0.7,7.6-2c2.1-1.3,3.9-3.1,5.4-5.2L183.1,82.5z M167.7,56.5
		c0.1-3.1-0.9-5.7-3-7.9c-2.1-2.2-4.8-3.3-8.1-3.3c-2,0-3.8,0.3-5.3,1c-1.5,0.6-2.9,1.5-3.9,2.5c-1.1,1-1.9,2.2-2.5,3.5
		c-0.6,1.3-1,2.7-1,4.2H167.7z"/>
	<path fill="#171818" d="M195.3,33.7h16.8v7.8h0.2c0.7-1.1,1.7-2.1,2.9-3.2c1.2-1.1,2.6-2.1,4.1-3c1.6-0.9,3.3-1.6,5.2-2.2
		c1.9-0.6,3.8-0.9,6-0.9c4.4,0,8.3,0.7,11.9,2.2c3.6,1.5,6.6,3.6,9.2,6.3c2.6,2.7,4.5,5.9,5.9,9.7c1.4,3.7,2.1,7.8,2.1,12.3
		c0,4.1-0.6,8.1-1.9,11.8c-1.3,3.8-3,7.1-5.3,10c-2.3,2.9-5.1,5.2-8.4,7c-3.3,1.7-7.1,2.6-11.3,2.6c-3.8,0-7.3-0.6-10.6-1.8
		c-3.3-1.2-6-3.2-8.1-6h-0.2v34h-18.2V33.7z M212.1,63.2c0,4.5,1.3,8.1,3.8,10.8c2.6,2.8,6.1,4.1,10.7,4.1c4.6,0,8.2-1.4,10.7-4.1
		c2.6-2.8,3.8-6.4,3.8-10.8c0-4.5-1.3-8.1-3.8-10.8c-2.6-2.8-6.1-4.1-10.7-4.1c-4.6,0-8.2,1.4-10.7,4.1
		C213.3,55.1,212.1,58.7,212.1,63.2z"/>
	<path fill="#171818" d="M309,48.2h-16v19.7c0,1.6,0.1,3.1,0.2,4.4c0.2,1.3,0.5,2.5,1.1,3.5c0.6,1,1.4,1.7,2.6,2.2
		c1.2,0.5,2.7,0.8,4.7,0.8c1,0,2.2-0.1,3.8-0.3c1.6-0.2,2.8-0.7,3.6-1.4v15.2c-2,0.7-4.1,1.2-6.3,1.5s-4.3,0.4-6.4,0.4
		c-3.1,0-5.9-0.3-8.5-1c-2.6-0.6-4.9-1.7-6.8-3.1c-1.9-1.4-3.5-3.3-4.6-5.5c-1.1-2.3-1.6-5-1.6-8.3v-28h-11.7V33.7h11.7V16.2H293
		v17.5h16V48.2z"/>
	<path fill="#171818" d="M318.4,15.1c0-2.9,1-5.4,3.1-7.5c2.1-2.1,4.6-3.1,7.5-3.1s5.4,1,7.5,3.1c2.1,2.1,3.1,4.6,3.1,7.5
		c0,2.9-1,5.4-3.1,7.5c-2.1,2.1-4.6,3.1-7.5,3.1s-5.4-1-7.5-3.1C319.4,20.5,318.4,18,318.4,15.1z M319.8,33.7H338v59h-18.2V33.7z"/>
	<path fill="#171818" d="M389.1,52.7c-0.9-1.3-2.1-2.4-3.8-3.2c-1.6-0.8-3.4-1.3-5.2-1.3c-4.6,0-8.2,1.4-10.7,4.1
		c-2.5,2.8-3.8,6.4-3.8,10.8c0,4.5,1.3,8.1,3.8,10.8c2.6,2.8,6.1,4.1,10.7,4.1c2,0,3.8-0.4,5.2-1.3c1.5-0.9,2.7-1.9,3.8-3.2l12,12.6
		c-2.8,2.9-6.2,5-10,6.1c-3.8,1.2-7.5,1.8-11,1.8c-4.5,0-8.8-0.7-12.8-2.2c-4-1.5-7.5-3.5-10.4-6.3c-3-2.7-5.3-6-7-9.8
		c-1.7-3.8-2.6-8.1-2.6-12.7c0-4.7,0.9-8.9,2.6-12.7c1.7-3.8,4-7.1,7-9.8c3-2.7,6.4-4.8,10.4-6.3c4-1.5,8.3-2.2,12.8-2.2
		c3.5,0,7.1,0.6,11,1.8c3.8,1.2,7.2,3.2,10,6.1L389.1,52.7z"/>
	<path fill="#171818" d="M0.1,9.7c3.9-3.5,8.3-6,13.2-7.4C18.2,0.7,23.3,0,28.5,0c4.5,0,8.9,0.6,13.2,1.9c4.3,1.3,8,3.2,11.3,5.7
		c3.3,2.5,5.9,5.7,7.8,9.4c2,3.7,2.9,8.1,2.9,13.1c0,5.1-1.1,9.3-3.2,12.4c-2.1,3.1-4.8,5.7-8,7.6c-3.2,1.9-6.7,3.4-10.5,4.6
		c-3.7,1.1-7.2,2.3-10.4,3.4c-3.2,1.1-5.9,2.5-8,4.1c-2.1,1.6-3.2,3.8-3.2,6.6c0,1.7,0.4,3.1,1.2,4.3c0.8,1.2,1.9,2.2,3.3,3
		c1.4,0.8,2.9,1.4,4.6,1.8c1.7,0.4,3.4,0.6,5,0.6c3.4,0,6.7-0.8,9.9-2.3c3.2-1.5,5.8-3.7,7.9-6.5l14.5,15.9
		c-4.4,4.1-9.2,7.1-14.4,8.9c-5.1,1.8-10.7,2.7-16.7,2.7c-4.8,0-9.3-0.6-13.7-1.8c-4.3-1.2-8.1-3.1-11.4-5.6
		c-3.3-2.5-5.9-5.7-7.8-9.5C1,76.4,0,71.9,0,66.8c0-5.4,1-9.7,3.1-12.9c2.1-3.2,4.7-5.8,7.9-7.7c3.2-1.9,6.6-3.4,10.3-4.4
		c3.7-1,7.1-2.1,10.3-3.1c3.2-1,5.8-2.3,7.9-3.8c2.1-1.5,3.1-3.6,3.1-6.4c0-1.7-0.4-3.2-1.3-4.4c-0.9-1.2-2-2.2-3.4-2.9
		c-1.4-0.7-2.9-1.3-4.4-1.6c-1.6-0.3-3.1-0.5-4.6-0.5c-2.5,0-5.2,0.5-8,1.5c-2.8,1-5.1,2.5-6.7,4.6L0.1,9.7z"/>
	<path fill="#171818" d="M40.4,124.3c-2.2,2.2-4.9,3.3-8,3.3s-5.8-1.1-8-3.3c-2.2-2.2-3.3-4.9-3.3-8c0-3.1,1.1-5.8,3.3-8
		c2.2-2.2,4.9-3.3,8-3.3s5.8,1.1,8,3.3c2.2,2.2,3.3,4.9,3.3,8C43.7,119.4,42.6,122,40.4,124.3z"/>
</g>
</svg>
