<?xml version="1.0" encoding="utf-8"?>
<!-- Generator: Adobe Illustrator 18.0.0, SVG Export Plug-In . SVG Version: 6.00 Build 0)  -->
<!DOCTYPE svg PUBLIC "-//W3C//DTD SVG 1.1//EN" "http://www.w3.org/Graphics/SVG/1.1/DTD/svg11.dtd">
<svg version="1.1" id="Layer_1" xmlns="http://www.w3.org/2000/svg" xmlns:xlink="http://www.w3.org/1999/xlink" x="0px" y="0px"
	 viewBox="0 0 136.4 90.1" enable-background="new 0 0 136.4 90.1" xml:space="preserve">
<g>
	<g>
		<path fill="#000000" d="M99.8,90.1h-8V0h8V90.1z"/>
	</g>
	<g>
		<path fill="#000000" d="M55.3,90.1h8.8l22.4-46.2L66,0h-8.7v0.5l20.4,42.9L55.3,90.1z"/>
	</g>
	<g>
		<path fill="#000000" d="M136.4,90.1h-8.8l-22.4-46.2L125.7,0h8.7v0.5L114,43.4L136.4,90.1z"/>
	</g>
</g>
<circle fill="#000000" cx="53.5" cy="44" r="3.6"/>
<g>
	<g>
		<path fill="#000000" d="M8,42.9c-0.1-2.3-2.2-3.3-2.2-3.3s0,0,0,0V12.1c0-0.1,0.1-7.5,4.5-7.5h4.2c2.9,2.1,7,3.8,10.1,3.8h5.2
			c4.7,0,6.3-3.1,6.3-4.4c0-2.4-1.4-4-3.9-4H13.6c-0.7,0-1.2,0.4-1.4,1.1h-1.9c-6.3,0-8,7.2-8,11.1v27.5c0,0,0,0,0,0
			c0,0-2.2,0.8-2.2,3.7c0,5.9,0,46.8,0,46.8h8V42.9z M33.6,4.6c0,0.1,0,0.2,0,0.3c0,0.4-0.2,0.8-0.6,1c-0.6,0.4-1.6,0.7-2.8,0.7
			h-6.2c-1.8,0-4.5-0.9-6.6-2H33.6z"/>
	</g>
	<g>
		<path fill="#000000" d="M29.7,39.6c-1,0-11.5,0-16.3,0v7H28l0,5.3V83H13.4v7.1h16.3c1.9,0,3.4-0.6,4.6-1.8
			c1.2-1.2,1.8-2.7,1.8-4.6V46C36.1,43.4,34.1,39.6,29.7,39.6z"/>
	</g>
</g>
</svg>
